<svg width="154" height="33" viewBox="0 0 154 33" fill="none" xmlns="http://www.w3.org/2000/svg">
<g clip-path="url(#clip0_224_13639)">
<path d="M7.12305 14.2181L9.25428 3.49219H14.0928C15.2119 3.49219 16.1088 3.73268 16.7671 4.22168C17.4254 4.71067 17.7545 5.38405 17.7545 6.23378C17.7545 7.24384 17.2937 8.01341 16.3803 8.53448C17.1538 8.91125 17.5488 9.56859 17.5488 10.4905C17.5488 11.5647 17.1127 12.4545 16.2405 13.1519C15.3682 13.8573 14.1257 14.2101 12.5211 14.2101H7.13128L7.12305 14.2181ZM13.3028 9.91329H11.2785L10.9247 11.6929H12.9325C13.311 11.6929 13.6073 11.5887 13.8212 11.3803C14.0352 11.1719 14.1421 10.8993 14.1421 10.5787C14.1421 10.1378 13.8624 9.91329 13.3028 9.91329ZM13.5332 6.01734H12.0603L11.7394 7.6607H13.13C13.5168 7.6607 13.813 7.5645 14.0022 7.37211C14.1997 7.17971 14.2903 6.93121 14.2903 6.64262C14.2903 6.23378 14.0352 6.02536 13.5332 6.02536V6.01734Z" fill="white"/>
<path d="M17.959 14.2181L20.1067 3.49219H23.4064L21.7853 11.6128H26.1712L25.6528 14.2181H17.9672H17.959Z" fill="white"/>
<path d="M33.9811 14.2181L33.7672 12.5667H30.2206L29.3402 14.2181H25.9746L31.7923 3.49219H35.7585L37.4619 14.2101H33.9811V14.2181ZM32.6316 8.03746L31.5043 10.1538H33.5862L33.3146 8.03746L33.2323 6.71476L32.6316 8.03746Z" fill="white"/>
<path d="M49.4885 7.1554H46.1065C45.9913 6.24955 45.4893 5.80063 44.6006 5.80063C43.7942 5.80063 43.1195 6.23351 42.5764 7.09126C42.0333 7.95703 41.77 8.92701 41.77 10.0253C41.77 11.2838 42.3048 11.9171 43.3746 11.9171C43.8025 11.9171 44.1974 11.8049 44.5595 11.5884C44.9133 11.364 45.1931 11.0594 45.3824 10.6585H48.7973C48.3447 11.9492 47.6041 12.9192 46.5755 13.5605C45.5469 14.2018 44.4032 14.5224 43.1524 14.5224C41.6548 14.5224 40.4781 14.1296 39.6305 13.344C38.7829 12.5584 38.3633 11.4602 38.3633 10.0413C38.3633 8.8709 38.6184 7.78067 39.1203 6.75458C39.6305 5.72848 40.3958 4.87875 41.4161 4.20537C42.4447 3.532 43.6132 3.19531 44.9462 3.19531C46.4686 3.19531 47.6041 3.56407 48.3612 4.30157C49.1182 5.03908 49.4967 5.98501 49.4967 7.1554H49.4885Z" fill="white"/>
<path d="M56.1501 14.2181L53.4346 9.56859L52.5048 14.2181H49.2051L51.3445 3.49219H54.6443L53.6733 8.37415L58.0098 3.49219H61.7456L56.759 8.9353L59.9353 14.2181H56.1501Z" fill="white"/>
<path d="M12.0999 24.8733H7.87038L7.12979 28.5929H3.83008L5.96954 17.875H14.1324L13.6305 20.4002H8.75908L8.3641 22.3561H12.5854L12.0835 24.8813L12.0999 24.8733Z" fill="white"/>
<path d="M18.6314 24.9534H17.3149L16.5907 28.5929H13.291L15.4305 17.875H20.1702C21.3881 17.875 22.3426 18.1395 23.0256 18.6686C23.7086 19.1977 24.0542 19.9512 24.0542 20.9132C24.0542 22.2199 23.4535 23.1738 22.2603 23.7831C22.573 24.1278 22.7458 24.6248 22.7787 25.2661L22.9598 28.5929H19.4955V25.8513C19.4955 25.4825 19.4379 25.242 19.3227 25.1298C19.2075 25.0176 18.9771 24.9534 18.6314 24.9534ZM19.7012 20.4002H18.2282L17.8086 22.5165H19.1992C19.6518 22.5165 19.9974 22.3962 20.236 22.1638C20.4747 21.9313 20.5899 21.5946 20.5899 21.1617C20.5899 20.6567 20.2936 20.4082 19.7012 20.4082V20.4002Z" fill="white"/>
<path d="M24.0566 28.5929L26.1961 17.875H29.4958L27.3564 28.5929H24.0566Z" fill="white"/>
<path d="M28.9785 28.5929L31.118 17.875H35.4545C37.0838 17.875 38.3346 18.2678 39.2068 19.0454C40.079 19.823 40.5152 20.9372 40.5152 22.3882C40.5152 23.4784 40.2436 24.4965 39.717 25.4424C39.1821 26.3804 38.4004 27.1419 37.3636 27.7271C36.3268 28.3123 35.15 28.6009 33.8335 28.6009H28.9785V28.5929ZM35.2323 20.4723H33.9075L32.8049 25.9876H34.0803C35.0019 25.9876 35.7343 25.6348 36.2856 24.9374C36.8369 24.24 37.1085 23.3903 37.1085 22.3882C37.1085 21.771 36.9521 21.29 36.6312 20.9613C36.3103 20.6326 35.8495 20.4643 35.2323 20.4643V20.4723Z" fill="white"/>
<path d="M47.1667 28.5929L46.9527 26.9415H43.4062L42.5257 28.5929H39.1602L44.9861 17.875H48.9523L50.6557 28.5929H47.1749H47.1667ZM45.8254 22.4123L44.6981 24.5286H46.7799L46.5084 22.4123L46.4261 21.0896L45.8254 22.4123Z" fill="white"/>
<path d="M53.4789 25.0336L51.2324 17.875H54.7461L55.4867 20.8892L55.6842 22.1958L56.3671 20.8892L58.342 17.875H61.8886L56.7868 25.0336L56.0709 28.5929H52.7712L53.4871 25.0336H53.4789Z" fill="white"/>
<path d="M94.4983 7.1554H91.1163C91.0011 6.24955 90.4991 5.80063 89.6104 5.80063C88.804 5.80063 88.1292 6.23351 87.5861 7.09126C87.043 7.95703 86.7797 8.92701 86.7797 10.0253C86.7797 11.2838 87.3146 11.9171 88.3843 11.9171C88.8122 11.9171 89.2072 11.8049 89.5693 11.5884C89.9231 11.364 90.2029 11.0594 90.3921 10.6585H93.807C93.3545 11.9492 92.6139 12.9192 91.5853 13.5605C90.5567 14.2018 89.4129 14.5224 88.1622 14.5224C86.6645 14.5224 85.4878 14.1296 84.6403 13.344C83.7927 12.5584 83.373 11.4602 83.373 10.0413C83.373 8.8709 83.6281 7.78067 84.1301 6.75458C84.6403 5.72848 85.4055 4.87875 86.4259 4.20537C87.4545 3.532 88.623 3.19531 89.956 3.19531C91.4783 3.19531 92.6139 3.56407 93.3709 4.30157C94.128 5.03908 94.5065 5.98501 94.5065 7.1554H94.4983Z" fill="white"/>
<path d="M97.3148 10.6508L95.0684 3.49219H98.582L99.3226 6.50634L99.5201 7.81301L100.203 6.50634L102.178 3.49219H105.725L100.623 10.6508L99.9068 14.2101H96.6071L97.323 10.6508H97.3148Z" fill="white"/>
<path d="M104.396 14.2179L106.536 3.5H111.374C112.494 3.5 113.39 3.74049 114.049 4.22949C114.707 4.71849 115.036 5.39186 115.036 6.2416C115.036 7.25166 114.575 8.02123 113.662 8.54229C114.436 8.91906 114.83 9.5764 114.83 10.4983C114.83 11.5725 114.394 12.4623 113.522 13.1597C112.65 13.8652 111.407 14.2179 109.803 14.2179H104.413H104.396ZM110.576 9.91309H108.552L108.198 11.6927H110.206C110.584 11.6927 110.881 11.5885 111.095 11.3801C111.309 11.1717 111.416 10.8991 111.416 10.5784C111.416 10.1375 111.136 9.91309 110.576 9.91309ZM110.807 6.01714H109.334L109.013 7.66049H110.403C110.79 7.66049 111.086 7.5643 111.276 7.3719C111.473 7.17951 111.564 6.931 111.564 6.64241C111.564 6.23358 111.309 6.02515 110.807 6.02515V6.01714Z" fill="white"/>
<path d="M115.225 14.2179L117.364 3.5H125.535L125.033 6.02515H120.162L119.857 7.55628H124.079L123.593 10.0013H119.372L119.035 11.7007H123.906L123.404 14.2259H115.233L115.225 14.2179Z" fill="white"/>
<path d="M130.122 10.5706H128.805L128.081 14.2101H124.781L126.921 3.49219H131.66C132.878 3.49219 133.833 3.75673 134.516 4.28581C135.199 4.81489 135.544 5.56843 135.544 6.53039C135.544 7.83706 134.944 8.791 133.751 9.40025C134.063 9.74495 134.236 10.242 134.269 10.8833L134.45 14.2101H130.986V11.4685C130.986 11.0997 130.928 10.8592 130.813 10.747C130.698 10.6348 130.467 10.5706 130.122 10.5706ZM131.191 6.01734H129.718L129.299 8.13366H130.689C131.142 8.13366 131.488 8.01342 131.726 7.78094C131.965 7.54847 132.08 7.21178 132.08 6.7789C132.08 6.27387 131.784 6.02536 131.191 6.02536V6.01734Z" fill="white"/>
<path d="M83.628 24.3362L83.2824 21.5144L82.081 28.5929H78.7812L80.9207 17.875H85.2902L85.9073 23.1417L86.1377 25.0897L87.1334 23.1578L89.8653 17.875H94.0373L91.8978 28.5929H88.5981L90.2603 21.4984L88.7627 24.3763L86.5738 28.5929H84.1381L83.6197 24.3362H83.628Z" fill="white"/>
<path d="M99.007 28.8972C97.5094 28.8972 96.3162 28.4964 95.4357 27.6868C94.5553 26.8771 94.1191 25.7548 94.1191 24.3279C94.1191 23.1094 94.3989 21.9871 94.9585 20.969C95.518 19.951 96.3244 19.1333 97.3777 18.508C98.431 17.8908 99.6159 17.5781 100.949 17.5781C102.447 17.5781 103.64 17.9789 104.52 18.7886C105.401 19.5982 105.837 20.7205 105.837 22.1475C105.837 23.3659 105.557 24.4882 104.997 25.5063C104.438 26.5244 103.632 27.3421 102.578 27.9673C101.525 28.5846 100.34 28.8972 99.007 28.8972ZM99.3608 26.2919C100.25 26.2919 100.974 25.8751 101.558 25.0414C102.142 24.2077 102.422 23.3098 102.422 22.3559C102.422 21.6585 102.266 21.1294 101.953 20.7446C101.64 20.3678 101.188 20.1754 100.595 20.1754C99.7064 20.1754 98.9823 20.5923 98.3981 21.426C97.8138 22.2597 97.5341 23.1575 97.5341 24.1115C97.5341 24.8089 97.6904 25.338 98.0031 25.7227C98.3158 26.0995 98.7684 26.2919 99.3608 26.2919Z" fill="white"/>
<path d="M110.84 24.1678L110.305 22.1317L109.202 28.5929H105.902L108.042 17.875H111.547L113.135 22.276L113.687 24.3442L114.756 17.875H117.842L115.925 28.5929H112.428L110.84 24.1598V24.1678Z" fill="white"/>
<path d="M117.549 28.5929L119.688 17.875H124.025C125.654 17.875 126.905 18.2678 127.777 19.0454C128.649 19.823 129.085 20.9372 129.085 22.3882C129.085 23.4784 128.814 24.4965 128.287 25.4424C127.752 26.3804 126.971 27.1419 125.934 27.7271C124.897 28.3123 123.72 28.6009 122.404 28.6009H117.549V28.5929ZM123.794 20.4723H122.47L121.367 25.9876H122.642C123.564 25.9876 124.296 25.6348 124.848 24.9374C125.399 24.24 125.671 23.3903 125.671 22.3882C125.671 21.771 125.514 21.29 125.193 20.9613C124.872 20.6326 124.412 20.4643 123.794 20.4643V20.4723Z" fill="white"/>
<path d="M135.745 28.5929L135.531 26.9415H131.984L131.104 28.5929H127.738L133.564 17.875H137.53L139.234 28.5929H135.753H135.745ZM134.404 22.4123L133.276 24.5286H135.358L135.087 22.4123L135.004 21.0896L134.404 22.4123Z" fill="white"/>
<path d="M142.043 25.0336L139.797 17.875H143.311L144.051 20.8892L144.249 22.1958L144.932 20.8892L146.906 17.875H150.453L145.351 25.0336L144.635 28.5929H141.336L142.052 25.0336H142.043Z" fill="white"/>
<path d="M70.5346 23.0158C70.5748 22.8856 70.5606 22.7444 70.4946 22.6237C70.4286 22.5028 70.3155 22.4119 70.1794 22.3727C70.0432 22.3335 69.897 22.3498 69.7733 22.416C69.6497 22.4822 69.5585 22.5931 69.5183 22.7233C69.4782 22.8533 69.4919 22.9938 69.5577 23.1144C69.6237 23.2353 69.7368 23.3262 69.873 23.3654C70.0091 23.4046 70.1552 23.3883 70.2791 23.3221C70.4026 23.256 70.4944 23.1459 70.5346 23.0158ZM77.8902 16.4017L79.8699 9.98767C80.304 8.5815 80.154 7.06892 79.4512 5.78247C78.7482 4.49584 77.5499 3.54078 76.1192 3.12894C74.6885 2.71715 73.1443 2.88275 71.8266 3.5877C70.5092 4.29259 69.526 5.4791 69.092 6.8852L67.1122 13.2992C66.9235 13.9108 66.2694 14.2624 65.6514 14.0845C65.0334 13.9066 64.6854 13.2665 64.8742 12.655L66.8539 6.24096C67.4702 4.2446 68.8657 2.5624 70.7318 1.56398C72.5977 0.565701 74.7815 0.332417 76.8028 0.914226C78.8242 1.49608 80.5192 2.84599 81.5147 4.66787C82.5102 6.49004 82.7242 8.63555 82.108 10.6319L80.1282 17.0459C79.9395 17.6575 79.2854 18.0091 78.6674 17.8312C78.0496 17.6532 77.7014 17.0131 77.8902 16.4017ZM72.7719 23.6598C72.5495 24.38 72.0467 24.9864 71.3747 25.346C70.7026 25.7056 69.9162 25.7893 69.1894 25.5801C68.4626 25.3709 67.8527 24.8852 67.4942 24.229C67.1356 23.5727 67.058 22.7994 67.2802 22.079C67.5026 21.3586 68.0062 20.752 68.6785 20.3923C69.3505 20.0328 70.1362 19.9488 70.863 20.158C71.5898 20.3672 72.2004 20.8531 72.5589 21.5093C72.9175 22.1657 72.9942 22.9395 72.7719 23.6598Z" fill="url(#paint0_linear_224_13639)"/>
<path d="M60.5615 12.1464C60.8249 11.2933 61.4215 10.5741 62.22 10.147C63.0185 9.71993 63.9536 9.61998 64.8195 9.86914L81.1433 14.5664C82.0092 14.8155 82.7349 15.3934 83.1609 16.1728C83.5869 16.9523 83.6782 17.8694 83.4148 18.7226L80.4351 28.3727C80.1717 29.2259 79.5751 29.9451 78.7766 30.3721C77.978 30.7992 77.043 30.8992 76.1771 30.65L59.8533 25.9528C58.9874 25.7036 58.2617 25.1257 57.8357 24.3463C57.4097 23.5669 57.3183 22.6497 57.5818 21.7966L60.5615 12.1464Z" fill="url(#paint1_linear_224_13639)" stroke="url(#paint2_linear_224_13639)" stroke-width="0.659069" stroke-linecap="round" stroke-linejoin="round"/>
<path d="M80.0397 16.8341C80.8601 16.8354 81.5098 17.0588 81.9889 17.5044C82.468 17.9425 82.7069 18.5348 82.7056 19.2813C82.7052 19.5226 82.6855 19.7375 82.6465 19.926C82.5997 20.1521 82.549 20.3481 82.4946 20.5139L77.7928 20.5067C77.7849 20.5594 77.7809 20.6348 77.7808 20.7329C77.7801 21.125 77.8957 21.4343 78.1275 21.6609C78.367 21.8799 78.6803 21.9897 79.0673 21.9903C79.3923 21.9908 79.6711 21.9234 79.9035 21.788C80.1437 21.6451 80.3375 21.4607 80.4849 21.2347L82.2379 21.2374C81.9505 21.8402 81.5046 22.3372 80.9003 22.7284C80.3037 23.112 79.6261 23.3033 78.8677 23.3021C78.0473 23.3008 77.3898 23.0736 76.8952 22.6204C76.4006 22.1672 76.154 21.5523 76.1554 20.7756C76.1557 20.5494 76.1794 20.3119 76.2262 20.0631C76.3434 19.4148 76.5805 18.8459 76.9373 18.3563C77.3019 17.8667 77.7515 17.4904 78.286 17.2273C78.8204 16.9642 79.405 16.8331 80.0397 16.8341ZM81.0334 19.5502C81.0491 19.4296 81.057 19.3429 81.0571 19.2901C81.0577 18.9282 80.9382 18.6452 80.6986 18.4412C80.4591 18.2373 80.1458 18.135 79.7588 18.1344C79.3486 18.1338 78.9808 18.2614 78.6553 18.5173C78.3298 18.7656 78.1009 19.1084 77.9685 19.5455L81.0334 19.5502Z" fill="black"/>
<path d="M75.9993 14.8252L74.4643 23.1926L72.8275 23.1901L74.3625 14.8227L75.9993 14.8252Z" fill="black"/>
<path d="M69.7537 22.2953C69.5365 22.5815 69.2072 22.8223 68.7657 23.0176C68.3242 23.2055 67.8635 23.299 67.3837 23.2983C66.8341 23.2974 66.3894 23.1535 66.0493 22.8664C65.717 22.5793 65.5513 22.1832 65.5521 21.678C65.5529 21.2406 65.6851 20.8601 65.9488 20.5362C66.2203 20.2049 66.5883 19.949 67.053 19.7688C67.5177 19.5885 68.0364 19.4988 68.6091 19.4997L70.2577 19.5023C70.2735 19.3213 70.2814 19.2007 70.2815 19.1404C70.2821 18.7935 70.1897 18.5257 70.0043 18.3369C69.8266 18.1481 69.5636 18.0534 69.2153 18.0529C68.8902 18.0524 68.5998 18.1462 68.3441 18.3343C68.0961 18.5149 67.9099 18.7748 67.7855 19.1139L66.1602 19.1114C66.3936 18.4029 66.797 17.8342 67.3705 17.4053C67.944 16.9764 68.6486 16.7626 69.4845 16.7639C70.2275 16.765 70.827 16.9582 71.283 17.3435C71.739 17.7287 71.9664 18.2569 71.9652 18.928C71.965 19.0864 71.9453 19.2862 71.9062 19.5274L71.2382 23.1911L69.5896 23.1886L69.7537 22.2953ZM68.1404 22.0326C68.3958 22.033 68.663 21.9769 68.9418 21.8642C69.2206 21.744 69.4608 21.5671 69.6625 21.3337C69.8718 21.1003 70.0077 20.8252 70.0702 20.5086L70.0703 20.4747L68.5146 20.4723C68.1276 20.4717 67.8218 20.558 67.597 20.731C67.3723 20.8966 67.2597 21.1 67.2593 21.3413C67.2589 21.5524 67.336 21.7222 67.4906 21.8506C67.6452 21.9715 67.8618 22.0322 68.1404 22.0326Z" fill="black"/>
<path d="M61.6435 23.2555C60.8308 23.2542 60.1617 23.076 59.636 22.7208C59.1181 22.3581 58.8596 21.8524 58.8608 21.204C58.8609 21.1361 58.8688 21.0343 58.8845 20.8986L60.5446 20.9012C60.5131 21.2178 60.5978 21.4781 60.7987 21.682C61.0073 21.8859 61.309 21.9882 61.7037 21.9888C62.0984 21.9894 62.4081 21.9107 62.6328 21.7527C62.8653 21.5872 62.9818 21.3536 62.9823 21.052C62.9828 20.773 62.8632 20.5503 62.6236 20.3841C62.3917 20.2178 62.0244 20.0325 61.5216 19.8282C61.0576 19.6389 60.6786 19.4649 60.3848 19.3061C60.0987 19.1473 59.8514 18.9283 59.6429 18.6489C59.4422 18.3621 59.3422 18.0038 59.3429 17.574C59.3438 17.0838 59.4722 16.658 59.7282 16.2965C59.992 15.9349 60.3485 15.6565 60.7977 15.4611C61.2547 15.2658 61.7734 15.1685 62.3539 15.1694C62.9266 15.1703 63.4218 15.2653 63.8394 15.4545C64.2647 15.6361 64.5816 15.8967 64.79 16.2364C65.0061 16.576 65.0983 16.972 65.0666 17.4244L63.3368 17.4218L63.3486 17.2974C63.3491 17.0485 63.2527 16.8448 63.0594 16.6861C62.874 16.5275 62.611 16.4479 62.2704 16.4474C61.9067 16.4468 61.6124 16.5293 61.3877 16.6949C61.163 16.8604 61.0503 17.0865 61.0499 17.373C61.0495 17.5615 61.1112 17.7275 61.2348 17.871C61.3661 18.0069 61.5245 18.1278 61.7101 18.2336C61.8957 18.3319 62.1625 18.4605 62.5105 18.6194C62.9668 18.8162 63.3418 19.0015 63.6356 19.1754C63.9295 19.3493 64.1806 19.5796 64.3891 19.8665C64.5975 20.1534 64.7014 20.5041 64.7007 20.9189C64.6999 21.3713 64.5715 21.7745 64.3155 22.1285C64.0673 22.4825 63.7108 22.761 63.2461 22.9639C62.7891 23.1592 62.2549 23.2564 61.6435 23.2555Z" fill="black"/>
</g>
<defs>
<linearGradient id="paint0_linear_224_13639" x1="43.6381" y1="65.8011" x2="98.133" y2="71.6485" gradientUnits="userSpaceOnUse">
<stop stop-color="#E44B26"/>
<stop offset="1" stop-color="#F3CF4E"/>
</linearGradient>
<linearGradient id="paint1_linear_224_13639" x1="41.1431" y1="51.5912" x2="117.224" y2="42.1568" gradientUnits="userSpaceOnUse">
<stop stop-color="#E44B26"/>
<stop offset="1" stop-color="#F3CF4E"/>
</linearGradient>
<linearGradient id="paint2_linear_224_13639" x1="41.1431" y1="51.5912" x2="117.224" y2="42.1568" gradientUnits="userSpaceOnUse">
<stop stop-color="#E44B26"/>
<stop offset="1" stop-color="#F3CF4E"/>
</linearGradient>
<clipPath id="clip0_224_13639">
<rect width="154" height="33" fill="white"/>
</clipPath>
</defs>
</svg>
